:SAMPLES-PER-SECOND 30
:FULLY-SPECIFIED
:DEGREES
154
root  -47.814 39.8019 -21.569 170.597 1.79803 173.524
RightUpLeg  -13.1185 -7.55519 -7.60144
RightLeg  -0.562089 -2.05179 2.85183
RightFoot  6.10669 -0.812198 5.59029
RightToes  1.74622e-010 0 -3.6325e-017
Spine  7.29765 -0.894462 -4.97111
Spine1  9.67896 -1.70745 1.56314
HEad  -13.3819 1.40232 -2.28827
LeftShoulder1  8.02219 -11.1614 -47.734
LeftArm  -17.4912 7.86747 -21.8925
LeftForeArm  34.4582 -50.6959 -11.0255
LeftHand  -0.244104 0.0205437 5.32207
RightShoulder  6.26127 9.99035 40.2473
RightArm  -5.0458 -23.9941 31.6241
RightForeArm  12.3892 5.95086 6.99854
RightHand  -0.575396 -0.264661 -13.0503
LeftUpLeg  9.71452 8.83421 -6.34292
LeftLeg  16.8594 2.09277 -1.22842
LeftFoot  -15.9281 0.159702 1.5708
LeftToes  -3.34697e-010 -1.70107e-010 -9.05613e-011
155
root  -47.7063 39.6805 -22.8004 170.97 1.46463 174.13
RightUpLeg  -13.5148 -7.04319 -6.4238
RightLeg  1.23179 -0.950774 2.60052
RightFoot  9.42095 -0.287039 1.99536
RightToes  1.74622e-010 0 -3.6325e-017
Spine  6.01222 -1.03412 -3.52836
Spine1  10.128 -1.72155 1.48979
HEad  -12.4173 1.15635 -2.55471
LeftShoulder1  7.93642 -10.9967 -47.7593
LeftArm  -17.2818 8.28803 -22.2404
LeftForeArm  33.9675 -49.5383 -10.5643
LeftHand  -0.244104 0.0205437 5.32207
RightShoulder  6.09845 9.77486 39.8001
RightArm  -4.70356 -25.0026 32.0363
RightForeArm  13.01 6.19492 7.10275
RightHand  -0.566757 -0.153189 -12.5919
LeftUpLeg  10.6654 9.85161 -5.63849
LeftLeg  18.3225 0.609326 -0.158799
LeftFoot  -17.0811 0.166896 1.29252
LeftToes  -3.34697e-010 -1.70107e-010 -9.05613e-011
156
root  -47.6178 39.5635 -24.0384 171.029 1.68235 175.297
RightUpLeg  -14.4054 -6.84758 -4.75764
RightLeg  5.39075 0.0578742 2.52373
RightFoot  13.2378 0.521413 -2.00682
RightToes  1.74622e-010 0 -3.6325e-017
Spine  5.28686 -1.16804 -0.613669
Spine1  10.2139 -1.42558 0.416245
HEad  -11.7313 1.12404 -2.92617
LeftShoulder1  7.94015 -10.8888 -48.143
LeftArm  -17.0459 9.31689 -22.4168
LeftForeArm  33.3184 -47.5825 -9.82364
LeftHand  -0.244104 0.0205437 5.32207
RightShoulder  6.01659 9.64568 39.6373
RightArm  -3.93414 -25.8133 32.2848
RightForeArm  12.9182 7.52667 7.36582
RightHand  -0.569823 -0.0292132 -12.3774
LeftUpLeg  11.0733 9.25215 -4.60079
LeftLeg  21.4237 1.26747 0.977878
LeftFoot  -18.1191 0.0871748 -0.269501
LeftToes  -3.34697e-010 -1.70107e-010 -9.05613e-011
157
root  -47.5448 39.4698 -25.2202 170.875 2.17784 177.109
RightUpLeg  -15.0393 -7.75901 -2.45842
RightLeg  9.96732 1.51974 2.53531
RightFoot  13.6524 1.0128 -4.16025
RightToes  1.74622e-010 0 -3.6325e-017
Spine  5.17989 -1.38194 3.3705
Spine1  10.1907 -1.06694 -1.01764
HEad  -11.4487 1.33037 -3.28901
LeftShoulder1  8.0686 -10.9202 -48.8198
LeftArm  -16.9878 10.6925 -22.6763
LeftForeArm  32.619 -44.4877 -8.74759
LeftHand  -0.244104 0.0205437 5.32207
RightShoulder  5.99541 9.60679 39.6125
RightArm  -2.90537 -25.9002 32.5676
RightForeArm  11.6687 9.17999 7.54266
RightHand  -0.604779 0.249412 -12.5088
LeftUpLeg  9.99277 7.78938 -2.75261
LeftLeg  27.5471 2.68996 1.85771
LeftFoot  -17.6379 -0.122845 -4.38085
LeftToes  -3.34697e-010 -1.70107e-010 -9.05613e-011
158
root  -47.446 39.4211 -26.2887 171.06 2.06972 179.248
RightUpLeg  -15.3535 -8.96704 -0.128085
RightLeg  13.8124 2.16316 2.60457
RightFoot  10.6638 1.06952 -5.11608
RightToes  1.74622e-010 0 -3.6325e-017
Spine  5.14359 -1.78578 6.68388
Spine1  10.033 -1.19485 -1.15589
HEad  -11.2158 1.62358 -3.72481
LeftShoulder1  8.20505 -10.983 -49.4317
LeftArm  -16.6796 12.1218 -23.6021
LeftForeArm  31.2646 -39.7674 -7.33717
LeftHand  -0.244104 0.0205437 5.32207
RightShoulder  5.92201 9.56204 39.2262
RightArm  -1.97327 -25.163 33.1996
RightForeArm  10.1639 10.3819 7.58566
RightHand  -0.633032 0.532625 -12.4866
LeftUpLeg  6.06056 7.12837 -0.0744686
LeftLeg  37.0977 2.74538 2.59489
LeftFoot  -12.653 -0.015242 -8.64333
LeftToes  -3.34697e-010 -1.70107e-010 -9.05613e-011
159
root  -47.3095 39.411 -27.2272 171.618 1.0354 -178.852
RightUpLeg  -15.2192 -9.60507 1.38107
RightLeg  16.0364 1.27848 2.9477
RightFoot  7.55144 1.01346 -5.76728
RightToes  1.74622e-010 0 -3.6325e-017
Spine  5.20102 -2.25402 8.50877
Spine1  9.26153 -1.77206 0.117329
HEad  -10.6983 1.75337 -4.0113
LeftShoulder1  8.23941 -10.9916 -49.6084
LeftArm  -15.2161 13.3475 -25.2085
LeftForeArm  28.4791 -33.5708 -5.81261
LeftHand  -0.244104 0.0205437 5.32207
RightShoulder  5.80645 9.4585 38.7214
RightArm  -1.46935 -24.1369 34.0003
RightForeArm  8.59451 11.197 7.56747
RightHand  -0.64555 0.649546 -12.4936
LeftUpLeg  -0.224183 6.597 2.36758
LeftLeg  47.6911 2.70048 3.61792
LeftFoot  -3.40661 0.659227 -9.55326
LeftToes  -3.34697e-010 -1.70107e-010 -9.05613e-011
